<?xml version="1.0" encoding="UTF-8" standalone="no"?>
<!-- Created with Inkscape (http://www.inkscape.org/) -->

<svg
   xmlns:dc="http://purl.org/dc/elements/1.1/"
   xmlns:cc="http://creativecommons.org/ns#"
   xmlns:rdf="http://www.w3.org/1999/02/22-rdf-syntax-ns#"
   xmlns:svg="http://www.w3.org/2000/svg"
   xmlns="http://www.w3.org/2000/svg"
   xmlns:sodipodi="http://sodipodi.sourceforge.net/DTD/sodipodi-0.dtd"
   xmlns:inkscape="http://www.inkscape.org/namespaces/inkscape"
   version="1.1"
   width="1014.3638"
   height="414.56012"
   id="svg2"
   inkscape:version="0.48.5 r10040"
   sodipodi:docname="project_zen_logo.svg">
  <sodipodi:namedview
     pagecolor="#ffffff"
     bordercolor="#666666"
     borderopacity="1"
     objecttolerance="10"
     gridtolerance="10"
     guidetolerance="10"
     inkscape:pageopacity="0"
     inkscape:pageshadow="2"
     inkscape:window-width="679"
     inkscape:window-height="725"
     id="namedview10"
     showgrid="false"
     inkscape:zoom="0.30758196"
     inkscape:cx="507.18188"
     inkscape:cy="207.28006"
     inkscape:window-x="683"
     inkscape:window-y="20"
     inkscape:window-maximized="0"
     inkscape:current-layer="svg2" />
  <defs
     id="defs4" />
  <metadata
     id="metadata7">
    <rdf:RDF>
      <cc:Work
         rdf:about="">
        <dc:format>image/svg+xml</dc:format>
        <dc:type
           rdf:resource="http://purl.org/dc/dcmitype/StillImage" />
        <dc:title />
      </cc:Work>
    </rdf:RDF>
  </metadata>
  <g
     transform="translate(-19.498105,-541.54124)"
     id="layer1"
     style="fill:#ffffff">
    <g
       transform="matrix(1.1601164,0,0,1.1760571,-177.79419,177.57238)"
       id="flowRoot2985"
       style="font-size:40px;font-style:normal;font-weight:normal;line-height:125%;letter-spacing:-22.98997307000000134px;word-spacing:0px;fill:#ffffff;fill-opacity:1;stroke:none;font-family:Sans">
      <path
         d="m 170.0625,626.4823 95,-124.5 13,0 153.5,-178 -235,0 0,-12 257.5,0 0,10 -157,180 17.5,0 -93.5,125.5 166.5,0 0,10.5 75.5,0 0,13.5 -75.5,0 0,10.5 -217.5,0 0,-35.5"
         id="path3203"
         style="font-size:500px;font-variant:normal;font-stretch:normal;font-family:'Presa ANTIPIXEL.COM.AR';-inkscape-font-specification:'Presa ANTIPIXEL.COM.AR Semi-Light';fill:#ffffff" />
      <path
         d="m 632.41629,510.9823 -108,0 0,113 225,0 0,38 -264,0 0,-250 13,0 0,-100.5 58,0 0,12.5 -43.5,0 0,88 11.5,0 0,62 108,0 0,12 94.5,0 0,15 -94.5,0 0,10 m 0,-199 110.5,0 0,12 -110.5,0 0,-12"
         id="path3205"
         style="font-size:500px;font-variant:normal;font-stretch:normal;font-family:'Presa ANTIPIXEL.COM.AR';-inkscape-font-specification:'Presa ANTIPIXEL.COM.AR Semi-Light';fill:#ffffff" />
      <path
         d="m 863.92633,378.4823 -10,0 14,21 -15,0 -14.5,-21 -9.5,0 -9,-13 0,96 -12.5,0 0,126.5 -14,0 0,-126.5 -13.5,0 0,-150 40,0 44,67 m 45.5,84 121.49997,179.5 0,-332.5 13.5,0 0,352.5 -17,0 -133.49997,-199.5 15.5,0"
         id="path3207"
         style="font-size:500px;font-variant:normal;font-stretch:normal;font-family:'Presa ANTIPIXEL.COM.AR';-inkscape-font-specification:'Presa ANTIPIXEL.COM.AR Semi-Light';fill:#ffffff" />
    </g>
  </g>
</svg>
